<svg class="logo__image" xmlns="http://www.w3.org/2000/svg" width="75" height="60" viewBox="0 0 70 60"><path class="logo__mobile-back" fill="#FDC305" d="M25.7 23l.1-2.3c6.7-.9 13.4-1.4 20.2-1.3 0 .6 0 1.2-.1 1.8 0 0 2.9-1.3 6-1.8-2.4-6.3-8.5-10.8-15.6-10.8-8.3 0-15.2 6.1-16.5 14.1 2.2.1 5.9.3 5.9.3zm21.1 3.5c-1.2 1.3-1.4 1.2-1.4 3.5v9.2c4.5-3 7.4-8.1 7.4-13.9 0-1.1-.1-2.1-.3-3.1-1.7 1.1-4.7 3.2-5.7 4.3zM26 28s-3.8-1.4-5.2-1.8l-1.2-.3c.2 6 3.7 11.3 8.7 14L26 28z"/><g class="logo__desktop-back"><path fill="#FDC305" d="M34.7 31c1.9-.8 4.2.1 5 2s-.1 4.2-2 5c-1.9.8-4.2-.1-5-2-.8-2 .1-4.2 2-5zM65.1 3.5l-8.4 9.4-1.3-2L63.6 0l1.5 3.5zm-2.6 13.8l5.6-4.2-.8-3.7-5.4 4.8.6 3.1zm-2.7 32.1l6.2 3.2 3-2.4-6.7-2.7-2.5 1.9zM1.9 6l3-3.4 9.3 9-1.2 2.3L1.9 6zm5.4 10.3l-4.7-3.1L.2 17l5.1 2.4 2-3.1zm6.5 36.3l-4.5 3.3 2.8 3.6 4-4-2.3-2.9z"/><path fill="#111" d="M31.9 31.7c.6-.2 1.2 0 1.4.6.2.6 0 1.2-.6 1.4-.6.2-1.2 0-1.4-.6-.3-.5 0-1.2.6-1.4zm6.7 4.6c.4-.2.9 0 1 .4.2.4 0 .9-.4 1-.4.2-.9 0-1-.4s0-.8.4-1zm1.1-1.2c.2-.1.3 0 .4.2s0 .3-.2.4c-.2.1-.3 0-.4-.2 0-.1 0-.3.2-.4z"/></g><g class="logo__tablet-back"><path fill="#FDC305" d="M59.8 24C54.3 11 39.3 4.8 26.3 10.2S7.1 30.7 12.5 43.7c3.6 8.6 11.3 14.2 19.9 15.5-.6-2.1-1.2-4.4-1.7-6.9 1.5 1 3.1 1.8 4.8 2.6 0 0 .1 2.2.3 4.6 1.8 0 3.6-.1 5.3-.5v-.8c.3-1.9 1.1-5.2 1.2-7.4 1.1-1.1 2.1-2.3 2.9-3.7 0 .1 0 .3-.1.4-.6 4.3-1.7 8.8-2.4 10.1-.2.4-.5.9-.8 1.2 1.4-.3 2.7-.8 4.1-1.3C59.1 52 65.2 37 59.8 24zm-1.5 3.8c-.4.4-1.3.7-1.5-.6-.2-1.3-.2-2.2-.2-2.2s-1.9-3.4-2.7-3.5c-.7 0-5.8 3.5-7.2 5-1.2 1.3-1.4 1.2-1.4 3.5 0 1.7.2 8.2.1 13.1 0 0-2.2.6-8.1 2.2-6 1.6-7.8 1.8-7.8 1.8l-1-5.8L25.8 28s-3.8-1.4-5.2-1.8-2.3-.7-4 .6c-1.8 1.3-1.7 3.9-1.7 3.9s.4 1 .5 1.4c0 .5-1.2.4-2 .4s-.9-1.4-.3-3.1c.6-1.7 1.9-3.7 1.9-3.7s1.2-2.3 2.1-2.9c0 0 .1-.3 1.3-.2 1.1.1 7.3.4 7.3.4l.1-2.3c6.7-.9 13.5-1.4 20.2-1.3 0 .6 0 1.2-.1 1.8 0 0 4.4-2 8.1-2 0 0 .4 0 .8.4.3.4 2.4 3 2.7 3.4.2.4 1.2 1.7 1.8 3-.1 0-.6 1.3-1 1.8z"/><path fill="#111" d="M41.1 31.5L38 32.8l1.1-5.6-7.5 9.8 3.1-1.3-1.1 5.6 7.5-9.8zm-7.4 3.8l4.1-5.4-.8 4 2-.8-4.1 5.4.8-4-2 .8z"/><path fill="#F06351" d="M56.4 21.7c.5.6.9 1.1 1 1.3.2.4 1.2 1.7 1.8 3 0 0-.4 1.3-.9 1.8s-1.3.7-1.5-.6c-.2-1.3-.2-2.2-.2-2.2s-1.9-3.4-2.7-3.5c-.7 0-5.8 3.5-7.2 5-1.2 1.3-1.4 1.2-1.4 3.5 0 1.5.2 6.6.1 11.2 1.8.2 4.5.7 5.3 1.9 0 0-.3-7.2 7.8-3.4 0 0 .3-9.8 11.5-7.3.1 0-5.6-7-13.6-10.7zM45.3 47.1c.1-1.1.2-2.5.2-4.1 0 0-2.2.6-8.1 2.2-6 1.6-7.8 1.8-7.8 1.8l1.1 5c0 .1 0 .2.1.3 1.5 1 3.1 1.8 4.8 2.6 4.4-2.2 6.9-4.1 6.9-4.1v.1c1-1.1 2-2.4 2.8-3.8zM25.8 28s-3.8-1.4-5.2-1.8-2.3-.7-4 .6c-1.8 1.3-1.7 3.9-1.7 3.9s.4 1 .5 1.4c0 .5-1.2.4-2 .4s-.9-1.4-.3-3.1c.6-1.7 1.9-3.7 1.9-3.7-5.4 2.8-15 9.4-15 9.4s2.9-.3 8.2.2 5 4.7 5 4.7 3.5-1 5.6-1.1 2.3 2.1 2.3 2.1l.5 3.9s.5-.6 2.7-2.4c1.9-1.5 3.9-1.4 4.4-1.3L25.8 28z"/></g><path fill="#F06351" d="M45.8 19.4c.1-8.5-1.4-16.5-1.4-16.5s-.1-1.3-.9-.2c-.7 1.1-1.2 4-1.2 4-7.4-.6-12.8.2-12.8.2-.8-2.7-2.2-4-2.9-3.7-.6.3-.7 3.3-.7 3.3l-.3 14.2c6.7-.9 13.5-1.4 20.2-1.3zm-10 4.3s-.2.4-.5.6c-.2.2-.6.4-1 .4-.6 0-1.1-.2-1.5-.4-.2-.1-.4-.3-.5-.4-.2-.2-.4-.3-.4-.3s.8 4.1 2.6 4.8c1.8.7 2.2-.8 2.2-1.1 0-.3 0-2.1-.8-3.2.1-.5 0-.3-.1-.4zm10-2.5s-2.6 2.3-5.1 5.2-5.3 4.9-5.3 4.9c-.2-.5-1.6-1.5-1.6-1.5s-3.1-2.1-5.2-3.8c-1.2-1-2.4-2.2-3.1-3-.3 0-1.1-.1-2-.1 4.7 7 12 8.8 12 8.8.9-.1 3.3-1.9 5.1-3.3 1.8-1.4 4.8-4.5 6-5.9.6-.7.9-1.4 1.1-2-1.2.3-1.9.7-1.9.7z"/><path fill="#111" d="M34.2 24.8c-1.3 0-2.3-1.4-2.4-1.4v-.2h.2s1 1.3 2.1 1.3c.6 0 1.1-.3 1.6-1l.1-.2.1.2s.4.8 1 .8c.5 0 1.1-.4 1.6-1.3 0-.1.1-.1.2 0 .1 0 .1.1 0 .2-.6 1-1.3 1.5-1.9 1.4-.6 0-.9-.5-1.1-.8-.3.7-.9 1-1.5 1zm-2.3-8.6c0-.1 1 .7 1.4.9.4.2.6.4.6.6s-.3.3-.6.3-.9-.1-1-.3h1.2c.1.1-1.3-1-1.6-1.5zm7.5.1l-1.1 1.3c0 .1-.2.3.2.3s1.1-.2 1.2-.3c.1-.1.1-.2-.1-.2s-.7 0-1 .1l.8-1.2c.1 0 .1-.1 0 0zm-3.1 6.1s.8-.4 1.1-1c.3-.7 0-.9-.4-1s-1.3 0-1.7.3c-.4.4-.3.7-.1 1 .2.3.8.7 1.1.7z"/></svg>